<svg width="24" height="25" viewBox="0 0 24 25" fill="none" xmlns="http://www.w3.org/2000/svg">
<path d="M7.5 11.5C8.03043 11.5 8.53914 11.2893 8.91421 10.9142C9.28929 10.5391 9.5 10.0304 9.5 9.5C9.5 8.96957 9.28929 8.46086 8.91421 8.08579C8.53914 7.71071 8.03043 7.5 7.5 7.5H3V11.5H7.5ZM8.5 13.5H3V17.5H8.5C9.03043 17.5 9.53914 17.2893 9.91421 16.9142C10.2893 16.5391 10.5 16.0304 10.5 15.5C10.5 14.9696 10.2893 14.4609 9.91421 14.0858C9.53914 13.7107 9.03043 13.5 8.5 13.5ZM10.563 12.072C11.3125 12.5227 11.8937 13.2066 12.2175 14.0191C12.5413 14.8315 12.5899 15.7277 12.3559 16.5704C12.1218 17.4131 11.618 18.1559 10.9216 18.685C10.2252 19.2141 9.3746 19.5004 8.5 19.5H1V5.5H7.5C8.26166 5.49993 9.0075 5.71732 9.64985 6.12661C10.2922 6.5359 10.8043 7.12007 11.126 7.81045C11.4478 8.50083 11.5657 9.26871 11.4659 10.0238C11.3662 10.7789 11.0529 11.4898 10.563 12.073M15.5 6.5H21V8H15.5V6.5ZM23 15H15.5V15.25C15.4998 15.8677 15.7075 16.4676 16.0898 16.9528C16.4721 17.438 17.0066 17.7804 17.6073 17.9248C18.2079 18.0692 18.8396 18.0072 19.4007 17.7487C19.9617 17.4902 20.4194 17.0503 20.7 16.5H22.834C22.5293 17.6083 21.8333 18.5686 20.8748 19.203C19.9164 19.8374 18.7605 20.1029 17.6212 19.9503C16.482 19.7978 15.4367 19.2375 14.6789 18.3732C13.9212 17.509 13.5023 16.3994 13.5 15.25V13.75C13.5 12.4902 14.0004 11.282 14.8912 10.3912C15.782 9.50045 16.9902 9 18.25 9C19.5098 9 20.718 9.50045 21.6088 10.3912C22.4996 11.282 23 12.4902 23 13.75V15ZM20.896 13C20.7323 12.4245 20.3854 11.9181 19.9079 11.5575C19.4304 11.1969 18.8483 11.0018 18.25 11.0018C17.6517 11.0018 17.0696 11.1969 16.5921 11.5575C16.1146 11.9181 15.7677 12.4245 15.604 13H20.896Z" fill="#BABABA"/>
</svg>
