<svg width="24" height="25" viewBox="0 0 24 25" fill="none" xmlns="http://www.w3.org/2000/svg">
<path d="M22 12.5C22.0017 13.8172 21.7424 15.1216 21.237 16.3379C20.7316 17.5543 19.9901 18.6584 19.0555 19.5865C18.1285 20.5118 17.0283 21.2454 15.8177 21.7454C14.6071 22.2453 13.3098 22.5017 12 22.5C6.47701 22.5 2.00001 18.023 2.00001 12.5C1.99651 9.93589 2.98144 7.46909 4.75001 5.61251C5.68318 4.62781 6.80747 3.84388 8.05407 3.3087C9.30068 2.77352 10.6434 2.49834 12 2.50001C13.3098 2.49831 14.6071 2.75475 15.8177 3.25466C17.0283 3.75458 18.1285 4.48817 19.0555 5.41351C19.9901 6.34162 20.7316 7.44575 21.237 8.66208C21.7424 9.87842 22.0017 11.1829 22 12.5Z" stroke="#BABABA" stroke-width="2" stroke-linecap="round" stroke-linejoin="round"/>
<path d="M22 12.5C20.541 12.5 16.516 11.95 12.9135 13.5315C9.00002 15.25 6.16652 17.916 4.93152 19.5735" stroke="#BABABA" stroke-width="2" stroke-linecap="round" stroke-linejoin="round"/>
<path d="M8.25 3.22705C9.815 4.67155 13.23 8.34905 14.5 12.0001C15.77 15.6511 16.24 20.1401 16.53 21.4176" stroke="#BABABA" stroke-width="2" stroke-linecap="round" stroke-linejoin="round"/>
<path d="M2.07703 11.2501C3.96603 11.3641 8.96653 11.4666 12.1665 10.1001C15.3665 8.73361 18.12 6.22011 19.0645 5.42261M2.75003 16.3066C3.63118 18.4396 5.22038 20.2037 7.25003 21.3021" stroke="#BABABA" stroke-width="2" stroke-linecap="round" stroke-linejoin="round"/>
<path d="M2.00001 12.5C1.99651 9.93589 2.98144 7.46909 4.75001 5.61251C5.68318 4.62781 6.80747 3.84388 8.05407 3.3087C9.30068 2.77352 10.6434 2.49834 12 2.50001M16 3.33201C17.1388 3.83028 18.175 4.53613 19.0555 5.41351C19.9901 6.34162 20.7316 7.44574 21.237 8.66208C21.7424 9.87842 22.0017 11.1829 22 12.5C22 13.731 21.7775 14.9105 21.37 16M12 22.5C13.3098 22.5017 14.6071 22.2453 15.8177 21.7454C17.0283 21.2454 18.1285 20.5118 19.0555 19.5865" stroke="#BABABA" stroke-width="2" stroke-linecap="round" stroke-linejoin="round"/>
</svg>
