<svg width="61" height="62" viewBox="0 0 61 62" fill="none" xmlns="http://www.w3.org/2000/svg">
<path d="M40.7809 31V41.0309M40.7809 23.4769V23.502M53.3195 18.4615V43.5386C53.3195 46.199 52.2627 48.7504 50.3815 50.6315C48.5004 52.5127 45.949 53.5695 43.2886 53.5695H18.2115C15.5511 53.5695 12.9997 52.5127 11.1186 50.6315C9.23742 48.7504 8.1806 46.199 8.1806 43.5386V18.4615C8.1806 15.8011 9.23742 13.2497 11.1186 11.3686C12.9997 9.48742 15.5511 8.4306 18.2115 8.4306H43.2886C45.949 8.4306 48.5004 9.48742 50.3815 11.3686C52.2627 13.2497 53.3195 15.8011 53.3195 18.4615Z" stroke="#959595" stroke-width="4" stroke-linecap="round" stroke-linejoin="round"/>
<path d="M18.2115 41.0309L21.0326 33.5078M21.0326 33.5078L25.7346 20.9692L30.4366 33.5078M21.0326 33.5078H30.4366M33.2578 41.0309L30.4366 33.5078" stroke="#959595" stroke-width="4" stroke-linecap="round" stroke-linejoin="round"/>
</svg>
