<svg width="62" height="62" viewBox="0 0 62 62" fill="none" xmlns="http://www.w3.org/2000/svg">
<path fill-rule="evenodd" clip-rule="evenodd" d="M32.8808 39.4586C34.618 40.852 36.7697 41.6275 38.9964 41.6628C41.2231 41.6981 43.3983 40.9912 45.1788 39.6536C46.9594 38.3159 48.244 36.4237 48.8302 34.2752C49.4163 32.1267 49.2706 29.8442 48.4161 27.7877C47.7016 26.0605 46.5186 24.5675 45.0006 23.4769C46.2955 22.5487 47.3504 21.3252 48.0778 19.9078C48.8053 18.4904 49.1843 16.92 49.1834 15.3268C49.1834 12.6665 48.1266 10.1151 46.2455 8.23393C44.3643 6.35278 41.8129 5.29596 39.1526 5.29596H22.8524C20.7288 5.29535 18.6597 5.96875 16.9432 7.21918C15.2267 8.46962 13.9514 10.2326 13.3009 12.2541C12.6503 14.2757 12.6582 16.4516 13.3233 18.4684C13.9884 20.4852 15.2765 22.2389 17.0019 23.4769C15.7076 24.4056 14.653 25.6292 13.9256 27.0465C13.1981 28.4638 12.8187 30.0339 12.8187 31.627C12.8187 33.22 13.1981 34.7902 13.9256 36.2075C14.653 37.6247 15.7076 38.8484 17.0019 39.7771C15.6055 40.7791 14.4899 42.1232 13.7623 43.6803C13.0346 45.2375 12.7193 46.9555 12.8466 48.6695C12.9738 50.3836 13.5394 52.0362 14.489 53.4688C15.4386 54.9015 16.7404 56.066 18.2695 56.8509C19.7986 57.6357 21.5038 58.0145 23.2214 57.9508C24.939 57.8872 26.6114 57.3833 28.0782 56.4874C29.5451 55.5916 30.7571 54.3338 31.5981 52.8348C32.439 51.3358 32.8807 49.6459 32.8808 47.9271V39.4586ZM22.8499 9.05753C21.1872 9.05753 19.5926 9.71805 18.4169 10.8938C17.2411 12.0695 16.5806 13.6641 16.5806 15.3268C16.5806 16.9895 17.2411 18.5842 18.4169 19.7599C19.5926 20.9356 21.1872 21.5961 22.8499 21.5961H29.1192V9.05753H22.8499ZM29.1192 41.6579H22.8499C21.61 41.6579 20.3979 42.0255 19.3669 42.7144C18.3359 43.4033 17.5324 44.3824 17.0578 45.528C16.5833 46.6735 16.4592 47.9341 16.7011 49.1502C16.943 50.3663 17.5401 51.4834 18.4169 52.3602C19.2936 53.237 20.4107 53.8341 21.6268 54.076C22.843 54.3179 24.1035 54.1937 25.2491 53.7192C26.3946 53.2447 27.3738 52.4412 28.0626 51.4102C28.7515 50.3792 29.1192 49.1671 29.1192 47.9271V41.6579ZM22.8499 25.3577C21.1872 25.3577 19.5926 26.0182 18.4169 27.1939C17.2411 28.3696 16.5806 29.9643 16.5806 31.627C16.5806 33.2897 17.2411 34.8843 18.4169 36.06C19.5926 37.2358 21.1872 37.8963 22.8499 37.8963H29.1192V25.3577H22.8499ZM32.8808 31.627C32.8808 33.29 33.5414 34.885 34.7174 36.0609C35.8933 37.2369 37.4883 37.8975 39.1513 37.8975C40.8144 37.8975 42.4093 37.2369 43.5853 36.0609C44.7612 34.885 45.4219 33.29 45.4219 31.627C45.4219 29.9639 44.7612 28.369 43.5853 27.193C42.4093 26.0171 40.8144 25.3564 39.1513 25.3564C37.4883 25.3564 35.8933 26.0171 34.7174 27.193C33.5414 28.369 32.8808 29.9639 32.8808 31.627ZM39.1501 21.5961C40.8128 21.5961 42.4074 20.9356 43.5831 19.7599C44.7589 18.5842 45.4194 16.9895 45.4194 15.3268C45.4194 13.6641 44.7589 12.0695 43.5831 10.8938C42.4074 9.71805 40.8128 9.05753 39.1501 9.05753H32.8808V21.5961H39.1501Z" fill="#959595"/>
</svg>
