<svg width="61" height="60" viewBox="0 0 61 60" fill="none" xmlns="http://www.w3.org/2000/svg">
<path fill-rule="evenodd" clip-rule="evenodd" d="M17.7612 10.9168C26.1636 9.98544 34.643 9.98544 43.0454 10.9168C44.6493 11.0943 46.1467 11.8074 47.2954 12.9408C48.4442 14.0743 49.1773 15.5619 49.3763 17.1633C50.3718 25.6749 50.3718 34.2735 49.3763 42.7851C49.1773 44.3865 48.4442 45.8741 47.2954 47.0076C46.1467 48.141 44.6493 48.8541 43.0454 49.0316C34.6431 49.963 26.1636 49.963 17.7612 49.0316C16.1573 48.8541 14.66 48.141 13.5112 47.0076C12.3625 45.8741 11.6293 44.3865 11.4303 42.7851C10.4348 34.2735 10.4348 25.6749 11.4303 17.1633C11.6293 15.5619 12.3625 14.0743 13.5112 12.9408C14.66 11.8074 16.1573 11.0943 17.7612 10.9168ZM43.4575 7.21751C34.7813 6.25569 26.0253 6.25569 17.3491 7.21751C12.3539 7.77364 8.31943 11.7088 7.73351 16.7288C6.70415 25.5291 6.70415 34.4193 7.73351 43.2196C8.31943 48.2396 12.3514 52.1748 17.3491 52.7334C26.0254 53.6942 34.7812 53.6942 43.4575 52.7334C48.4527 52.1748 52.4872 48.2396 53.0731 43.2196C54.1024 34.4193 54.1024 25.5291 53.0731 16.7288C52.4872 11.7088 48.4552 7.77364 43.4575 7.21503M23.8861 38.6637H20.5543V20.5026C21.756 20.2841 23.4219 20.1203 25.6886 20.1203C28.1465 20.1203 29.949 20.6391 31.1233 21.6223C32.2157 22.5235 32.9258 23.971 32.9258 25.6915C32.9258 27.4393 32.3796 28.8868 31.3418 29.8699C30.0011 31.2081 27.9007 31.8362 25.5247 31.8362C24.8966 31.8362 24.3231 31.8089 23.8861 31.727V38.6637ZM25.8227 22.6874C24.8966 22.6874 24.2412 22.7693 23.8861 22.8512V29.0779C24.2958 29.1872 24.842 29.2145 25.5247 29.2145C28.0373 29.2145 29.5666 27.9855 29.5666 25.828C29.5666 23.7798 28.1465 22.6874 25.8252 22.6874M37.6206 38.6637H34.2615V29.6514C34.2615 27.849 34.2366 26.5654 34.1522 25.3638H37.0744L37.1836 27.9036H37.2929C37.9483 26.0192 39.505 25.0634 40.9251 25.0634C41.2528 25.0634 41.4465 25.0907 41.7196 25.1453V28.3133C41.3958 28.242 41.0654 28.2053 40.7339 28.204C39.1226 28.204 38.0302 29.2418 37.7298 30.7438C37.6621 31.0858 37.6256 31.4331 37.6206 31.7816V38.6637Z" fill="#959595"/>
</svg>
