<svg width="61" height="62" viewBox="0 0 61 62" fill="none" xmlns="http://www.w3.org/2000/svg">
<path d="M53.0695 18.4615V43.5386C53.0695 46.199 52.0127 48.7504 50.1316 50.6315C48.2504 52.5127 45.699 53.5695 43.0387 53.5695H17.9615C15.3011 53.5695 12.7498 52.5127 10.8686 50.6315C8.98745 48.7504 7.93063 46.199 7.93063 43.5386V18.4615C7.93063 15.8011 8.98745 13.2497 10.8686 11.3686C12.7498 9.48742 15.3011 8.4306 17.9615 8.4306H43.0387C45.699 8.4306 48.2504 9.48742 50.1316 11.3686C52.0127 13.2497 53.0695 15.8011 53.0695 18.4615Z" stroke="#959595" stroke-width="4" stroke-linecap="round" stroke-linejoin="round"/>
<path d="M17.9615 41.0309V31M17.9615 31V20.9692H22.9769C24.3071 20.9692 25.5828 21.4976 26.5234 22.4382C27.4639 23.3787 27.9924 24.6544 27.9924 25.9846C27.9924 27.3148 27.4639 28.5905 26.5234 29.5311C25.5828 30.4716 24.3071 31 22.9769 31H17.9615ZM43.0387 28.4923C42.2713 26.9551 40.699 25.9846 38.9812 25.9846H38.0232C37.0256 25.9846 36.0688 26.3809 35.3634 27.0864C34.658 27.7918 34.2616 28.7486 34.2616 29.7462C34.2616 30.7438 34.658 31.7006 35.3634 32.406C36.0688 33.1115 37.0256 33.5078 38.0232 33.5078H39.2771C40.2747 33.5078 41.2315 33.9041 41.9369 34.6095C42.6423 35.3149 43.0387 36.2717 43.0387 37.2693C43.0387 38.267 42.6423 39.2237 41.9369 39.9292C41.2315 40.6346 40.2747 41.0309 39.2771 41.0309H38.3191C37.4767 41.0309 36.6508 40.7963 35.9342 40.3534C35.2176 39.9105 34.6384 39.2767 34.2616 38.5232" stroke="#959595" stroke-width="4" stroke-linecap="round" stroke-linejoin="round"/>
</svg>
