<svg width="59" height="57" viewBox="0 0 59 57" fill="none" xmlns="http://www.w3.org/2000/svg">
<path fill-rule="evenodd" clip-rule="evenodd" d="M22.31 35.708C31.8154 35.708 44.4533 36.7784 44.4533 46.0388C44.4533 55.7936 29.7274 56.3789 23.4107 56.4141L21.1173 56.4141C14.3823 56.3791 0.166626 55.7971 0.166626 46.0971C0.166626 36.3313 14.8926 35.7454 21.2092 35.7102L21.9681 35.708C22.0864 35.708 22.2004 35.708 22.31 35.708ZM22.31 40.083C14.2045 40.083 4.54163 41.1242 4.54163 46.0971C4.54163 50.0405 10.5208 52.0413 22.31 52.0413C34.0991 52.0413 40.0783 50.02 40.0783 46.0388C40.0783 42.0867 34.0991 40.083 22.31 40.083ZM48.8945 34.3456C56.787 35.5268 58.4407 39.1814 58.4407 42.0368C58.4407 44.1631 57.522 47.0418 53.1383 48.7014C52.8845 48.7977 52.622 48.8443 52.3624 48.8443C51.4787 48.8443 50.6474 48.3048 50.3178 47.4327C49.8891 46.3039 50.4578 45.0381 51.5866 44.6123C54.0657 43.6731 54.0658 42.5268 54.0658 42.0368C54.0658 40.3831 52.1087 39.2514 48.2499 38.6768C47.0541 38.496 46.2287 37.3818 46.4066 36.1889C46.5874 34.9931 47.722 34.191 48.8945 34.3456ZM22.31 0.833374C30.567 0.833374 37.2872 7.55337 37.2872 15.8105C37.3045 19.7888 35.7616 23.5455 32.95 26.3746C30.1441 29.2067 26.3962 30.773 22.4091 30.7875H22.31C14.05 30.7875 7.32996 24.0675 7.32996 15.8105C7.32996 7.55337 14.05 0.833374 22.31 0.833374ZM42.9821 4.11112C48.7134 5.05029 52.8725 9.95321 52.8725 15.7661C52.8609 21.614 48.4946 26.6365 42.7138 27.4474C42.6117 27.462 42.5096 27.4678 42.4075 27.4678C41.3342 27.4678 40.398 26.6774 40.2434 25.5836C40.0771 24.3878 40.9084 23.2795 42.1042 23.1132C45.7442 22.6028 48.4917 19.444 48.4975 15.7632C48.4975 12.1057 45.8784 9.01987 42.2763 8.43071C41.0834 8.23237 40.2755 7.10946 40.4709 5.91654C40.6663 4.72362 41.795 3.92154 42.9821 4.11112ZM22.31 5.20837C16.462 5.20837 11.705 9.96546 11.705 15.8105C11.705 21.6555 16.462 26.4125 22.31 26.4125H22.4004C25.212 26.4009 27.8604 25.2955 29.8466 23.2917C31.8358 21.2938 32.9237 18.6367 32.9121 15.8192C32.9121 9.96546 28.155 5.20837 22.31 5.20837Z" fill="#FD6F00"/>
</svg>
